<?xml version="1.0" encoding="UTF-8" standalone="no"?>
<!DOCTYPE svg PUBLIC "-//W3C//DTD SVG 1.1//EN" "http://www.w3.org/Graphics/SVG/1.1/DTD/svg11.dtd">
<svg width="100%" height="100%" viewBox="0 0 1200 1200" version="1.1" xmlns="http://www.w3.org/2000/svg" xmlns:xlink="http://www.w3.org/1999/xlink" xml:space="preserve" xmlns:serif="http://www.serif.com/" style="fill-rule:evenodd;clip-rule:evenodd;stroke-linejoin:round;stroke-miterlimit:2;">
    <rect id="Artboard1" x="0" y="0" width="1200" height="1200" style="fill:none;"/>
    <g id="Artboard11" serif:id="Artboard1">
        <g transform="matrix(6.36167,0,0,6.36167,537.953,621.059)">
            <path d="M12.4,-26.2C21,-16.5 36.2,-23.1 50.2,-21.5C64.1,-19.8 76.8,-9.9 68.3,-4.9C59.8,0.1 30.2,0.2 18.2,5.3C6.3,10.4 11.9,20.4 11.8,35.4C11.7,50.3 5.9,70.1 -3.3,75.8C-12.4,81.4 -24.7,72.8 -27.3,59.3C-29.9,45.8 -22.7,27.4 -17.6,16.7C-12.5,6 -9.5,3 -11.9,-1.4C-14.3,-5.8 -22.1,-11.5 -28.7,-24.9C-35.4,-38.2 -40.7,-59 -35.8,-70.8C-30.8,-82.6 -15.4,-85.3 -6.7,-73.6C1.9,-61.9 3.8,-35.9 12.4,-26.2Z" style="fill-rule:nonzero;"/>
        </g>
    </g>
</svg>
