<?xml version="1.0" encoding="UTF-8" standalone="no"?>
<!DOCTYPE svg PUBLIC "-//W3C//DTD SVG 1.1//EN" "http://www.w3.org/Graphics/SVG/1.1/DTD/svg11.dtd">
<svg width="100%" height="100%" viewBox="0 0 1200 1200" version="1.1" xmlns="http://www.w3.org/2000/svg" xmlns:xlink="http://www.w3.org/1999/xlink" xml:space="preserve" xmlns:serif="http://www.serif.com/" style="fill-rule:evenodd;clip-rule:evenodd;stroke-linejoin:round;stroke-miterlimit:2;">
    <rect id="Artboard1" x="0" y="0" width="1200" height="1200" style="fill:none;"/>
    <g id="Artboard11" serif:id="Artboard1">
        <g transform="matrix(11.1609,0,0,11.1609,555.173,696.702)">
            <path d="M17.5,-32.2C23,-27.2 28.1,-23.1 32.3,-17.9C36.5,-12.7 40,-6.4 41.7,1C43.4,8.3 43.3,16.7 36.4,17.3C29.6,17.9 15.8,10.8 8.6,7.1C1.4,3.3 0.7,3 -3.2,8.6C-7.2,14.2 -14.3,25.7 -19.2,28.1C-24.1,30.5 -26.7,23.7 -24.2,17.5C-21.7,11.3 -14,5.7 -15.1,-0.6C-16.2,-6.9 -26.1,-13.8 -27,-17.4C-28,-20.9 -20.1,-21.1 -14.1,-25.8C-8.2,-30.5 -4.1,-39.8 1,-41.5C6,-43.1 12,-37.2 17.5,-32.2Z" style="fill-rule:nonzero;"/>
        </g>
    </g>
</svg>
