<?xml version="1.0" encoding="UTF-8" standalone="no"?>
<!DOCTYPE svg PUBLIC "-//W3C//DTD SVG 1.1//EN" "http://www.w3.org/Graphics/SVG/1.1/DTD/svg11.dtd">
<svg width="100%" height="100%" viewBox="0 0 1200 1200" version="1.1" xmlns="http://www.w3.org/2000/svg" xmlns:xlink="http://www.w3.org/1999/xlink" xml:space="preserve" xmlns:serif="http://www.serif.com/" style="fill-rule:evenodd;clip-rule:evenodd;stroke-linejoin:round;stroke-miterlimit:2;">
    <rect id="Artboard1" x="0" y="0" width="1200" height="1200" style="fill:none;"/>
    <g id="Artboard11" serif:id="Artboard1">
        <g transform="matrix(6.22221,0,0,6.22221,537.677,655.16)">
            <path d="M42.9,-64.9C53.8,-68 59.7,-52.9 65.9,-39.1C72.2,-25.3 78.7,-12.6 75.3,-1.9C72,8.8 58.7,17.5 48.8,25C38.9,32.4 32.4,38.6 24.8,43.1C17.3,47.7 8.6,50.5 0.1,50.3C-8.4,50.2 -16.9,47 -19.2,39.4C-21.5,31.9 -17.6,19.9 -25.3,12.6C-32.9,5.3 -52,2.7 -57.1,-3C-62.2,-8.6 -53.4,-17.2 -47.3,-27C-41.1,-36.9 -37.6,-48 -30.2,-46.9C-22.8,-45.9 -11.4,-32.6 2.3,-36.6C16,-40.6 31.9,-61.8 42.9,-64.9Z" style="fill-rule:nonzero;"/>
        </g>
    </g>
</svg>
