<?xml version="1.0" encoding="UTF-8" standalone="no"?>
<!DOCTYPE svg PUBLIC "-//W3C//DTD SVG 1.1//EN" "http://www.w3.org/Graphics/SVG/1.1/DTD/svg11.dtd">
<svg width="100%" height="100%" viewBox="0 0 1200 1200" version="1.1" xmlns="http://www.w3.org/2000/svg" xmlns:xlink="http://www.w3.org/1999/xlink" xml:space="preserve" xmlns:serif="http://www.serif.com/" style="fill-rule:evenodd;clip-rule:evenodd;stroke-linejoin:round;stroke-miterlimit:2;">
    <rect id="Artboard1" x="0" y="0" width="1200" height="1200" style="fill:none;"/>
    <g id="Artboard11" serif:id="Artboard1">
        <g transform="matrix(16.2315,0,0,16.2315,568.251,590.486)">
            <path d="M18.4,-29.8C21.4,-30.2 19.5,-20.2 17.7,-13.5C15.9,-6.8 14.1,-3.4 16.7,1.5C19.3,6.4 26.4,12.9 25.2,14.4C24.1,16 14.8,12.7 9.2,16.6C3.6,20.6 1.8,31.7 -1.2,33.7C-4.2,35.8 -8.4,28.8 -8.7,21.8C-9.1,14.9 -5.7,8.1 -10.7,4.5C-15.7,0.9 -29.1,0.4 -30.1,-0.6C-31.1,-1.6 -19.7,-3.2 -15,-7.4C-10.4,-11.7 -12.6,-18.7 -11.2,-19.2C-9.9,-19.7 -4.9,-13.9 1.4,-16.3C7.7,-18.7 15.5,-29.5 18.4,-29.8Z" style="fill-rule:nonzero;"/>
        </g>
    </g>
</svg>
