<?xml version="1.0" encoding="UTF-8" standalone="no"?>
<!DOCTYPE svg PUBLIC "-//W3C//DTD SVG 1.1//EN" "http://www.w3.org/Graphics/SVG/1.1/DTD/svg11.dtd">
<svg width="100%" height="100%" viewBox="0 0 1200 1200" version="1.1" xmlns="http://www.w3.org/2000/svg" xmlns:xlink="http://www.w3.org/1999/xlink" xml:space="preserve" xmlns:serif="http://www.serif.com/" style="fill-rule:evenodd;clip-rule:evenodd;stroke-linejoin:round;stroke-miterlimit:2;">
    <rect id="Artboard1" x="0" y="0" width="1200" height="1200" style="fill:none;"/>
    <g id="Artboard11" serif:id="Artboard1">
        <g transform="matrix(7.27628,0,0,7.27628,608.557,603.724)">
            <path d="M31.4,-45C41.1,-48.7 49.7,-41.2 48.9,-31.8C48.1,-22.4 38,-11.2 36.2,-1.1C34.4,9.1 40.8,18.2 41.4,27.2C41.9,36.2 36.5,45.1 28.7,47C20.8,48.9 10.4,43.9 4.5,36C-1.3,28.1 -2.6,17.4 -12.6,16.7C-22.6,16 -41.2,25.3 -53.6,24.2C-66,23 -72.1,11.5 -63.4,5C-54.7,-1.4 -31,-2.8 -25.3,-15.5C-19.5,-28.1 -31.6,-51.9 -30.4,-53C-29.1,-54.2 -14.6,-32.6 -1.9,-29.4C10.8,-26.2 21.7,-41.2 31.4,-45Z" style="fill-rule:nonzero;"/>
        </g>
    </g>
</svg>
