<?xml version="1.0" encoding="UTF-8" standalone="no"?>
<!DOCTYPE svg PUBLIC "-//W3C//DTD SVG 1.1//EN" "http://www.w3.org/Graphics/SVG/1.1/DTD/svg11.dtd">
<svg width="100%" height="100%" viewBox="0 0 1200 1200" version="1.1" xmlns="http://www.w3.org/2000/svg" xmlns:xlink="http://www.w3.org/1999/xlink" xml:space="preserve" xmlns:serif="http://www.serif.com/" style="fill-rule:evenodd;clip-rule:evenodd;stroke-linejoin:round;stroke-miterlimit:2;">
    <rect id="Artboard1" x="0" y="0" width="1200" height="1200" style="fill:none;"/>
    <g id="Artboard11" serif:id="Artboard1">
        <g transform="matrix(-2.71478,1.33497,-1.33497,-2.71478,12573.7,-6324.43)">
            <g transform="matrix(1.38056,0,0,1.38056,1817.08,-1322.09)">
                <path d="M2048.18,762.889C2052.78,781.453 2057.39,800.017 2061.99,818.582C2062.62,821.121 2065.62,822.891 2068.14,822.074C2070.78,821.222 2072.31,818.645 2071.64,815.923C2067.03,797.359 2062.42,778.795 2057.82,760.231C2057.19,757.691 2054.19,755.921 2051.67,756.738C2049.04,757.59 2047.5,760.168 2048.18,762.889Z" style="fill:rgb(29,13,13);fill-rule:nonzero;"/>
            </g>
            <g transform="matrix(1.38056,0,0,1.38056,1817.08,-1322.09)">
                <path d="M1980.79,712.603C1987.74,741.554 1994.69,770.504 2001.64,799.455C2003.62,807.703 2005.6,815.952 2007.58,824.2C2008.19,826.745 2011.22,828.505 2013.73,827.693C2016.38,826.836 2017.88,824.269 2017.22,821.542C2010.27,792.591 2003.33,763.641 1996.38,734.69C1994.4,726.442 1992.42,718.193 1990.44,709.945C1989.83,707.4 1986.8,705.64 1984.29,706.452C1981.64,707.309 1980.14,709.876 1980.79,712.603Z" style="fill:rgb(29,13,13);fill-rule:nonzero;"/>
            </g>
            <g transform="matrix(1.38056,0,0,1.38056,1817.08,-1322.09)">
                <path d="M1921.31,594.156C1922.67,618.436 1924.04,642.715 1925.4,666.995C1926.75,691.108 1928.11,715.221 1929.46,739.335C1930.23,752.971 1930.99,766.608 1931.76,780.244C1931.9,782.851 1933.95,785.37 1936.76,785.244C1939.34,785.128 1941.91,783.041 1941.76,780.244C1940.39,755.965 1939.03,731.685 1937.67,707.405C1936.31,683.292 1934.96,659.179 1933.61,635.065C1932.84,621.429 1932.08,607.793 1931.31,594.156C1931.16,591.549 1929.12,589.03 1926.31,589.156C1923.73,589.272 1921.15,591.359 1921.31,594.156Z" style="fill:rgb(29,13,13);fill-rule:nonzero;"/>
            </g>
        </g>
    </g>
</svg>
