<?xml version="1.0" encoding="UTF-8" standalone="no"?>
<!DOCTYPE svg PUBLIC "-//W3C//DTD SVG 1.1//EN" "http://www.w3.org/Graphics/SVG/1.1/DTD/svg11.dtd">
<svg width="100%" height="100%" viewBox="0 0 1200 1200" version="1.1" xmlns="http://www.w3.org/2000/svg" xmlns:xlink="http://www.w3.org/1999/xlink" xml:space="preserve" xmlns:serif="http://www.serif.com/" style="fill-rule:evenodd;clip-rule:evenodd;stroke-linejoin:round;stroke-miterlimit:2;">
    <rect id="Artboard1" x="0" y="0" width="1200" height="1200" style="fill:none;"/>
    <g id="Artboard11" serif:id="Artboard1">
        <g transform="matrix(4.17656,0,0,4.17656,-3757.9,-4542.52)">
            <path d="M1134.86,1250.33C1118.85,1255.74 1102.84,1261.16 1086.83,1266.58C1070.9,1271.98 1054.96,1277.37 1039.03,1282.76C1029.96,1285.83 1020.89,1288.9 1011.82,1291.97C1013.7,1294.42 1015.58,1296.87 1017.47,1299.32C1028.26,1278.26 1039.05,1257.21 1049.85,1236.15C1052.89,1230.22 1055.93,1224.29 1058.97,1218.36C1060.76,1214.86 1058.52,1211.09 1054.65,1210.83C1038.63,1209.79 1022.6,1208.83 1006.58,1207.69C1005.18,1207.6 1003.78,1207.47 1002.38,1207.31C1002.15,1207.28 1001.91,1207.24 1001.68,1207.22C1003.1,1207.35 1001.88,1207.24 1001.6,1207.19C1000.78,1207.06 999.969,1206.92 999.159,1206.75C997.797,1206.46 996.448,1206.1 995.134,1205.64C994.811,1205.52 994.495,1205.4 994.175,1205.28C993.275,1204.94 994.407,1205.4 994.436,1205.39C994.058,1205.51 992.711,1204.53 992.369,1204.33C992.087,1204.16 991.809,1203.99 991.537,1203.81C991.447,1203.75 991.358,1203.68 991.268,1203.62C990.835,1203.31 990.912,1203.37 991.498,1203.82C991.231,1203.87 990.249,1202.71 990.057,1202.51C989.83,1202.28 989.622,1202.03 989.404,1201.78C988.646,1200.94 990.002,1202.71 989.391,1201.74C989.011,1201.14 988.671,1200.54 988.339,1199.91C987.764,1198.82 988.596,1200.89 988.277,1199.72C988.18,1199.37 988.052,1199.03 987.962,1198.67C987.917,1198.49 987.655,1197.78 987.738,1197.62C987.764,1197.82 987.79,1198.03 987.816,1198.24C987.788,1198 987.767,1197.77 987.752,1197.53C987.707,1196.81 987.753,1196.11 987.776,1195.39C987.815,1194.17 987.53,1196.5 987.781,1195.29C987.855,1194.94 987.916,1194.58 988,1194.22C988.199,1193.38 988.458,1192.54 988.761,1191.73C988.848,1191.49 989.162,1190.31 988.834,1191.51C988.964,1191.03 989.281,1190.54 989.505,1190.1C990.295,1188.55 991.218,1187.07 992.218,1185.65C992.454,1185.31 992.7,1184.99 992.938,1184.65C993.278,1184.2 993.267,1184.21 992.904,1184.68C993.073,1184.46 993.244,1184.25 993.416,1184.04C994.018,1183.29 994.639,1182.56 995.276,1181.84C996.517,1180.43 997.817,1179.09 999.153,1177.78C1001.02,1175.94 1001.13,1172.52 999.153,1170.7C997.142,1168.86 994.077,1168.75 992.082,1170.7C986.72,1175.97 981.764,1181.95 979.118,1189.07C976.485,1196.15 977.716,1204.23 983.1,1209.7C988.042,1214.72 995.118,1216.37 1001.86,1217.24C1009.66,1218.24 1017.62,1218.42 1025.47,1218.93C1035.2,1219.56 1044.92,1220.2 1054.65,1220.83C1053.21,1218.33 1051.77,1215.82 1050.33,1213.31C1039.54,1234.37 1028.75,1255.42 1017.95,1276.48C1014.91,1282.41 1011.87,1288.34 1008.83,1294.27C1007.9,1296.09 1007.94,1298.17 1009.22,1299.82C1010.38,1301.33 1012.58,1302.26 1014.48,1301.62C1030.49,1296.2 1046.5,1290.78 1062.51,1285.36C1078.44,1279.96 1094.38,1274.57 1110.31,1269.18C1119.38,1266.11 1128.45,1263.04 1137.52,1259.97C1139.99,1259.13 1141.88,1256.49 1141.01,1253.82C1140.22,1251.36 1137.52,1249.43 1134.86,1250.33Z" style="fill:rgb(29,13,13);fill-rule:nonzero;"/>
        </g>
    </g>
</svg>
