<?xml version="1.0" encoding="UTF-8" standalone="no"?>
<!DOCTYPE svg PUBLIC "-//W3C//DTD SVG 1.1//EN" "http://www.w3.org/Graphics/SVG/1.1/DTD/svg11.dtd">
<svg width="100%" height="100%" viewBox="0 0 1200 1200" version="1.1" xmlns="http://www.w3.org/2000/svg" xmlns:xlink="http://www.w3.org/1999/xlink" xml:space="preserve" xmlns:serif="http://www.serif.com/" style="fill-rule:evenodd;clip-rule:evenodd;stroke-linejoin:round;stroke-miterlimit:2;">
    <rect id="Artboard1" x="0" y="0" width="1200" height="1200" style="fill:none;"/>
    <g id="Artboard11" serif:id="Artboard1">
        <g transform="matrix(4.17656,0,0,4.17656,-7922.43,-309.803)">
            <path d="M1966.94,213.298C1973.05,223.856 1979.16,234.414 1985.27,244.973C1986.89,247.779 1990.84,248.233 1993.12,245.985C2000.26,238.95 2007.41,231.915 2014.55,224.88C2011.93,224.543 2009.31,224.205 2006.7,223.868C2011.88,234.666 2017.48,245.581 2027.28,252.924C2031.73,256.264 2037.06,258.709 2042.6,259.506C2048.74,260.39 2054.81,259.403 2060.25,256.352C2069.57,251.129 2075.28,241.396 2080.41,232.4C2087.04,220.766 2093.66,209.133 2100.29,197.499C2107.78,184.348 2115.28,171.197 2122.77,158.046C2124.07,155.773 2123.38,152.476 2120.98,151.205C2118.6,149.95 2115.52,150.571 2114.14,152.999C2101.33,175.471 2088.53,197.944 2075.72,220.416C2072.98,225.24 2070.33,230.14 2067.35,234.826C2066.71,235.828 2066.05,236.82 2065.37,237.794C2065.05,238.254 2064.72,238.71 2064.39,239.162C2064.21,239.412 2064.02,239.658 2063.83,239.907C2063.61,240.197 2063.68,240.105 2064.04,239.63C2063.89,239.824 2063.74,240.017 2063.58,240.209C2062.13,241.999 2060.55,243.697 2058.81,245.212C2058.63,245.368 2058.45,245.523 2058.27,245.675C2058.04,245.868 2057.3,246.688 2058.16,245.778C2057.85,246.107 2057.38,246.349 2057.01,246.603C2055.98,247.296 2054.91,247.917 2053.79,248.448C2053.49,248.591 2052.82,249.041 2053.85,248.448C2053.66,248.557 2053.38,248.634 2053.19,248.708C2052.62,248.918 2052.05,249.105 2051.48,249.268C2050.99,249.406 2050.5,249.527 2050,249.63C2049.63,249.707 2049.21,249.821 2048.83,249.836C2049.69,249.801 2049.15,249.79 2048.6,249.83C2047.44,249.916 2046.26,249.906 2045.09,249.81C2045.04,249.806 2043.76,249.671 2044.59,249.77C2045.42,249.87 2044.15,249.69 2044.1,249.681C2043.45,249.564 2042.81,249.422 2042.17,249.257C2041.54,249.091 2040.9,248.902 2040.28,248.691C2040.03,248.606 2039.78,248.518 2039.53,248.427C2039.51,248.419 2038.29,247.961 2039.02,248.241C2039.74,248.519 2038.54,248.025 2038.51,248.014C2038.27,247.903 2038.03,247.788 2037.79,247.67C2037.13,247.345 2036.48,246.996 2035.84,246.627C2035.2,246.257 2034.58,245.867 2033.96,245.457C2033.74,245.307 2033.52,245.155 2033.3,245.001C2033.19,244.922 2031.99,244.031 2032.51,244.434C2033.11,244.901 2032.08,244.08 2032.07,244.073C2031.77,243.817 2031.46,243.556 2031.16,243.289C2030.66,242.848 2030.18,242.392 2029.71,241.924C2028.6,240.825 2027.55,239.662 2026.56,238.455C2026.58,238.471 2025.7,237.388 2026.16,237.964C2026.38,238.247 2026.34,238.191 2026.03,237.796C2025.86,237.569 2025.7,237.342 2025.53,237.113C2025.11,236.54 2024.7,235.959 2024.31,235.372C2020.78,230.163 2018.05,224.478 2015.33,218.821C2013.91,215.858 2009.62,215.703 2007.48,217.809C2000.33,224.844 1993.19,231.879 1986.05,238.914C1988.67,239.251 1991.28,239.588 1993.9,239.926C1987.79,229.367 1981.68,218.809 1975.58,208.251C1974.27,205.986 1971,204.998 1968.73,206.457C1966.45,207.93 1965.54,210.875 1966.94,213.298Z" style="fill:rgb(29,13,13);fill-rule:nonzero;"/>
        </g>
    </g>
</svg>
