<?xml version="1.0" encoding="UTF-8" standalone="no"?>
<!DOCTYPE svg PUBLIC "-//W3C//DTD SVG 1.1//EN" "http://www.w3.org/Graphics/SVG/1.1/DTD/svg11.dtd">
<svg width="100%" height="100%" viewBox="0 0 1200 1200" version="1.1" xmlns="http://www.w3.org/2000/svg" xmlns:xlink="http://www.w3.org/1999/xlink" xml:space="preserve" xmlns:serif="http://www.serif.com/" style="fill-rule:evenodd;clip-rule:evenodd;stroke-linejoin:round;stroke-miterlimit:2;">
    <rect id="Artboard1" x="0" y="0" width="1200" height="1200" style="fill:none;"/>
    <g id="Artboard11" serif:id="Artboard1">
        <g transform="matrix(3.68626,0,0,3.68626,-5937.63,-2069.53)">
            <path d="M1708,666.158C1730.55,658.039 1753.09,649.919 1775.64,641.8C1782.06,639.488 1788.48,637.176 1794.89,634.865C1793.27,632.079 1791.65,629.293 1790.03,626.508C1771,648.287 1751.98,670.065 1732.95,691.844C1727.59,697.977 1722.23,704.111 1716.88,710.244C1715.46,711.867 1714.84,714.363 1716.09,716.303C1717.27,718.126 1719.57,719.279 1721.74,718.601C1744.95,711.344 1768.16,704.087 1791.37,696.83C1797.89,694.792 1804.41,692.754 1810.93,690.716C1809.3,687.931 1807.68,685.145 1806.06,682.359C1785.62,705.656 1765.19,728.952 1744.75,752.248C1739.04,758.761 1733.32,765.274 1727.61,771.787C1726.19,773.407 1725.58,775.909 1726.83,777.846C1728.03,779.713 1730.27,780.754 1732.47,780.144C1760.9,772.278 1789.33,764.413 1817.76,756.547C1825.79,754.325 1833.82,752.103 1841.86,749.881C1840.23,747.095 1838.61,744.31 1836.99,741.524C1819.19,756.458 1801.38,771.391 1783.58,786.324C1778.53,790.553 1773.49,794.781 1768.45,799.01C1766.94,800.281 1766.7,802.781 1767.42,804.472C1768.15,806.2 1770.01,807.669 1771.99,807.545C1789.84,806.423 1807.7,805.3 1825.56,804.177C1830.69,803.855 1835.81,803.533 1840.94,803.21C1843.54,803.046 1846.06,801.028 1845.94,798.21C1845.82,795.642 1843.73,793.035 1840.94,793.21C1823.08,794.333 1805.22,795.456 1787.36,796.579C1782.24,796.901 1777.11,797.223 1771.99,797.545C1773.17,800.39 1774.34,803.236 1775.52,806.081C1793.33,791.147 1811.13,776.214 1828.94,761.281C1833.98,757.052 1839.02,752.824 1844.06,748.595C1845.68,747.238 1845.96,744.273 1844.84,742.536C1843.64,740.669 1841.4,739.629 1839.2,740.238C1810.77,748.104 1782.34,755.97 1753.91,763.836C1745.88,766.058 1737.85,768.28 1729.82,770.501C1731.44,773.287 1733.06,776.073 1734.68,778.858C1755.12,755.562 1775.55,732.266 1795.99,708.969C1801.71,702.456 1807.42,695.943 1813.13,689.43C1814.55,687.81 1815.16,685.308 1813.91,683.371C1812.74,681.548 1810.44,680.395 1808.27,681.073C1785.06,688.33 1761.85,695.587 1738.64,702.844C1732.12,704.882 1725.6,706.92 1719.08,708.958C1720.7,711.743 1722.33,714.529 1723.95,717.315C1742.97,695.536 1762,673.757 1781.03,651.978C1786.38,645.845 1791.74,639.712 1797.1,633.579C1798.52,631.956 1799.13,629.46 1797.88,627.52C1796.74,625.753 1794.36,624.456 1792.24,625.222C1769.69,633.341 1747.14,641.461 1724.6,649.58C1718.18,651.892 1711.76,654.204 1705.34,656.515C1702.89,657.399 1700.97,659.959 1701.85,662.666C1702.63,665.081 1705.36,667.107 1708,666.158Z" style="fill:rgb(29,13,13);fill-rule:nonzero;"/>
        </g>
    </g>
</svg>
