<?xml version="1.0" encoding="UTF-8" standalone="no"?>
<!DOCTYPE svg PUBLIC "-//W3C//DTD SVG 1.1//EN" "http://www.w3.org/Graphics/SVG/1.1/DTD/svg11.dtd">
<svg width="100%" height="100%" viewBox="0 0 1200 1200" version="1.1" xmlns="http://www.w3.org/2000/svg" xmlns:xlink="http://www.w3.org/1999/xlink" xml:space="preserve" xmlns:serif="http://www.serif.com/" style="fill-rule:evenodd;clip-rule:evenodd;stroke-linejoin:round;stroke-miterlimit:2;">
    <rect id="Artboard1" x="0" y="0" width="1200" height="1200" style="fill:none;"/>
    <g id="Artboard11" serif:id="Artboard1">
        <g transform="matrix(3.87046,0,0,3.87046,-1969.47,-3391.29)">
            <path d="M710.187,957.471C695.004,959.504 680.181,963.326 666.01,969.174C651.876,975.007 638.484,982.454 626.265,991.666C614.067,1000.86 602.174,1011.42 594.047,1024.51C586.162,1037.2 581.862,1053.54 589.856,1067.26C596.879,1079.31 610.752,1084.63 623.884,1086.73C631.59,1087.96 639.389,1088.39 647.18,1088.64C656.056,1088.94 664.943,1088.89 673.815,1088.5C691.837,1087.7 709.822,1085.51 727.512,1081.98C734.197,1080.65 740.793,1078.87 746.794,1075.54C752.505,1072.36 757.731,1067.48 759.462,1060.98C761.281,1054.15 759.061,1047.09 754.211,1042.07C749.594,1037.3 743.147,1034.4 736.857,1032.59C733.466,1031.61 729.989,1031.03 726.503,1030.51C721.83,1029.81 717.134,1029.25 712.422,1028.89C703.568,1028.21 694.663,1028.18 685.805,1028.81C681.169,1029.14 676.557,1029.67 671.955,1030.32C669.356,1030.68 667.706,1034.13 668.463,1036.47C669.385,1039.32 671.828,1040.35 674.614,1039.96C674.874,1039.92 676.034,1039.77 675.204,1039.88C675.765,1039.81 676.325,1039.73 676.886,1039.67C677.928,1039.54 678.971,1039.42 680.015,1039.31C682.183,1039.09 684.355,1038.9 686.53,1038.76C690.719,1038.48 694.917,1038.34 699.115,1038.36C703.394,1038.37 707.672,1038.54 711.939,1038.85C714.032,1039.01 716.123,1039.2 718.209,1039.43C719.172,1039.53 720.134,1039.65 721.096,1039.77C721.416,1039.81 721.736,1039.85 722.056,1039.89C721.96,1039.88 721.336,1039.79 721.927,1039.88C722.487,1039.96 723.046,1040.03 723.605,1040.12C727.003,1040.62 730.398,1041.17 733.711,1042.09C735.128,1042.49 736.529,1042.94 737.907,1043.45C738.225,1043.57 738.541,1043.7 738.856,1043.82C739.949,1044.26 738.262,1043.54 739.065,1043.91C739.726,1044.21 740.385,1044.51 741.032,1044.84C742.294,1045.49 743.52,1046.21 744.685,1047.01C744.745,1047.05 745.512,1047.7 745.589,1047.67C745.564,1047.68 744.811,1047.02 745.197,1047.37C745.312,1047.48 745.441,1047.57 745.56,1047.67C746.11,1048.14 746.639,1048.63 747.14,1049.14C747.508,1049.52 747.899,1050.23 748.335,1050.5C748.333,1050.5 747.734,1049.65 748.004,1050.09C748.108,1050.25 748.234,1050.41 748.344,1050.57C748.536,1050.86 748.719,1051.15 748.892,1051.45C749.039,1051.71 749.179,1051.97 749.311,1052.23C749.376,1052.36 749.429,1052.5 749.502,1052.63C749.758,1053.07 749.292,1052.12 749.291,1052.11C749.316,1052.71 749.777,1053.49 749.919,1054.1C749.972,1054.33 749.969,1054.81 750.098,1054.99C749.781,1054.54 750.001,1053.96 750.04,1054.58C750.05,1054.74 750.067,1054.89 750.078,1055.05C750.123,1055.73 750.121,1056.42 750.069,1057.11C750.057,1057.27 749.98,1057.58 750.01,1057.72C750.007,1057.71 750.221,1056.65 750.077,1057.15C749.995,1057.43 749.963,1057.74 749.893,1058.03C749.823,1058.32 749.743,1058.61 749.654,1058.89C749.576,1059.14 749.124,1060.3 749.449,1059.54C749.775,1058.77 749.36,1059.7 749.271,1059.87C749.138,1060.13 748.997,1060.39 748.849,1060.64C748.676,1060.94 748.494,1061.23 748.301,1061.52C748.183,1061.69 747.553,1062.65 747.991,1061.97C748.419,1061.31 747.854,1062.11 747.713,1062.27C747.479,1062.54 747.239,1062.8 746.991,1063.05C746.523,1063.53 746.031,1063.98 745.521,1064.42C745.402,1064.52 745.279,1064.61 745.16,1064.72C744.603,1065.2 745.297,1064.45 745.428,1064.52C745.376,1064.49 744.734,1065.03 744.654,1065.09C744.079,1065.49 743.489,1065.87 742.888,1066.24C741.604,1067.02 740.269,1067.71 738.903,1068.33C738.599,1068.47 738.264,1068.58 737.973,1068.75C737.974,1068.75 738.904,1068.37 738.383,1068.57C738.224,1068.63 738.067,1068.7 737.909,1068.76C737.169,1069.06 736.421,1069.33 735.669,1069.59C734.282,1070.07 732.876,1070.5 731.457,1070.88C723.849,1072.9 715.932,1074.09 708.152,1075.25C707.114,1075.4 706.075,1075.55 705.036,1075.7C704.556,1075.76 704.076,1075.83 703.596,1075.89C703.692,1075.88 704.318,1075.8 703.725,1075.88C703.324,1075.93 702.924,1075.98 702.524,1076.03C700.442,1076.3 698.357,1076.55 696.271,1076.78C692.097,1077.23 687.916,1077.61 683.729,1077.92C667.172,1079.13 650.416,1079.29 633.861,1077.93C632.274,1077.8 630.689,1077.65 629.108,1077.46C628.753,1077.41 628.4,1077.37 628.046,1077.32C627.468,1077.25 628.486,1077.38 628.489,1077.38C628.319,1077.34 628.132,1077.33 627.958,1077.31C627.131,1077.19 626.306,1077.06 625.483,1076.91C622.444,1076.39 619.429,1075.72 616.479,1074.82C614.976,1074.36 613.505,1073.82 612.039,1073.26C611.149,1072.91 612.832,1073.61 611.963,1073.23C611.65,1073.09 611.337,1072.95 611.026,1072.81C610.306,1072.47 609.595,1072.12 608.896,1071.75C607.614,1071.06 606.369,1070.31 605.177,1069.48C604.905,1069.28 604.639,1069.09 604.368,1068.89C603.653,1068.38 605.069,1069.49 604.205,1068.76C603.658,1068.29 603.113,1067.83 602.591,1067.34C602.07,1066.84 601.568,1066.33 601.086,1065.8C600.862,1065.55 600.643,1065.3 600.429,1065.05C600.321,1064.92 600.217,1064.79 600.109,1064.67C599.386,1063.82 600.55,1065.29 600.172,1064.75C599.305,1063.53 598.488,1062.29 597.8,1060.95C597.625,1060.61 597.457,1060.27 597.297,1059.92C597.256,1059.83 597.043,1059.49 597.063,1059.4C597.054,1059.44 597.492,1060.51 597.139,1059.55C596.861,1058.8 596.594,1058.04 596.373,1057.27C596.155,1056.5 595.971,1055.73 595.822,1054.95C595.767,1054.66 595.785,1054.12 595.637,1053.87C595.647,1053.89 595.749,1054.87 595.696,1054.3C595.674,1054.06 595.643,1053.82 595.621,1053.57C595.471,1051.94 595.463,1050.29 595.58,1048.65C595.607,1048.28 595.639,1047.92 595.677,1047.55C595.696,1047.37 595.721,1047.18 595.74,1047C595.798,1046.42 595.696,1047.39 595.684,1047.41C595.855,1047.19 595.85,1046.38 595.898,1046.12C595.978,1045.69 596.064,1045.26 596.158,1044.84C596.512,1043.23 596.968,1041.64 597.505,1040.08C597.778,1039.28 598.073,1038.5 598.387,1037.72C598.458,1037.54 598.517,1037.34 598.608,1037.17C598.589,1037.21 598.247,1037.99 598.488,1037.47C598.682,1037.05 598.861,1036.63 599.056,1036.21C600.553,1033.01 602.343,1029.94 604.331,1027.02C604.823,1026.29 605.328,1025.58 605.844,1024.87C606.082,1024.55 606.322,1024.22 606.565,1023.9C606.686,1023.74 606.809,1023.58 606.931,1023.42C607.373,1022.83 606.426,1024.04 606.89,1023.47C607.986,1022.13 609.073,1020.79 610.225,1019.49C614.926,1014.21 620.189,1009.38 625.611,1004.85C627.021,1003.67 628.45,1002.52 629.897,1001.38C630.057,1001.26 630.219,1001.13 630.38,1001.01C630.333,1001.04 629.724,1001.51 630.176,1001.17C630.501,1000.92 630.824,1000.67 631.15,1000.42C631.91,999.85 632.674,999.282 633.444,998.72C636.356,996.594 639.335,994.559 642.374,992.618C648.395,988.772 654.653,985.297 661.098,982.214C662.695,981.451 664.302,980.711 665.921,979.997C666.668,979.667 667.418,979.345 668.168,979.023C668.853,978.729 667.413,979.332 668.103,979.052C668.292,978.975 668.48,978.895 668.669,978.817C669.109,978.635 669.55,978.455 669.992,978.277C673.336,976.929 676.722,975.684 680.144,974.546C686.922,972.291 693.839,970.454 700.845,969.061C702.513,968.729 704.186,968.422 705.864,968.141C706.669,968.006 707.475,967.877 708.282,967.753C708.753,967.681 709.224,967.612 709.696,967.544C709.977,967.503 711.404,967.307 710.187,967.471C711.568,967.285 712.694,967.035 713.722,966.006C714.589,965.139 715.242,963.716 715.187,962.471C715.079,960.059 712.963,957.099 710.187,957.471Z" style="fill:rgb(1,0,0);fill-rule:nonzero;"/>
        </g>
    </g>
</svg>
