<?xml version="1.0" encoding="UTF-8" standalone="no"?>
<!DOCTYPE svg PUBLIC "-//W3C//DTD SVG 1.1//EN" "http://www.w3.org/Graphics/SVG/1.1/DTD/svg11.dtd">
<svg width="100%" height="100%" viewBox="0 0 1200 1200" version="1.1" xmlns="http://www.w3.org/2000/svg" xmlns:xlink="http://www.w3.org/1999/xlink" xml:space="preserve" xmlns:serif="http://www.serif.com/" style="fill-rule:evenodd;clip-rule:evenodd;stroke-linejoin:round;stroke-miterlimit:2;">
    <rect id="Artboard1" x="0" y="0" width="1200" height="1200" style="fill:none;"/>
    <g id="Artboard11" serif:id="Artboard1">
        <g transform="matrix(4.17656,0,0,4.17656,-8192.02,-2095.28)">
            <path d="M2081.87,603.958C2074.72,604.729 2068.33,607.622 2062.96,612.416C2057.91,616.933 2054.26,622.905 2052.01,629.263C2047.38,642.329 2050,657.443 2060.28,667.096C2070.46,676.658 2085.53,679.8 2098.96,676.684C2105.67,675.128 2112.04,671.801 2117.01,667.014C2122.29,661.933 2125.98,655.208 2127.81,648.14C2131.58,633.605 2128.1,617.567 2118.49,606.034C2117.42,604.76 2116.27,603.568 2115.05,602.448C2113.12,600.68 2109.86,600.399 2107.98,602.448C2106.21,604.372 2105.92,607.631 2107.98,609.519C2109.16,610.602 2110.28,611.752 2111.31,612.978C2111.5,613.208 2111.98,613.592 2112.04,613.874C2112.04,613.892 2111.44,613.06 2111.76,613.516C2111.89,613.695 2112.02,613.869 2112.15,614.047C2112.64,614.714 2113.1,615.397 2113.54,616.094C2114.37,617.397 2115.11,618.749 2115.78,620.138C2115.95,620.486 2116.11,620.838 2116.27,621.189C2116.79,622.33 2116.02,620.528 2116.35,621.365C2116.65,622.137 2116.94,622.909 2117.21,623.695C2117.72,625.214 2118.15,626.762 2118.49,628.329C2118.65,629.086 2118.8,629.847 2118.92,630.612C2118.95,630.806 2118.94,631.463 2119.07,631.596C2118.82,631.342 2118.95,630.566 2119.02,631.255C2119.04,631.475 2119.07,631.694 2119.09,631.914C2119.41,635.109 2119.35,638.299 2119,641.488C2118.9,642.4 2119.18,640.47 2118.97,641.626C2118.91,642.004 2118.85,642.383 2118.78,642.76C2118.63,643.566 2118.45,644.368 2118.25,645.164C2117.87,646.697 2117.39,648.207 2116.83,649.682C2116.78,649.808 2116.58,650.556 2116.46,650.59C2116.55,650.562 2116.9,649.618 2116.58,650.294C2116.51,650.441 2116.44,650.591 2116.37,650.739C2116.03,651.478 2115.66,652.206 2115.27,652.921C2114.51,654.315 2113.57,655.567 2112.72,656.904C2112.41,657.38 2113.01,656.515 2113,656.544C2112.96,656.678 2112.69,656.931 2112.59,657.058C2112.35,657.356 2112.1,657.649 2111.85,657.938C2111.31,658.556 2110.74,659.154 2110.16,659.729C2109.65,660.231 2109.12,660.715 2108.57,661.18C2108.34,661.379 2108.1,661.569 2107.87,661.765C2107.22,662.307 2108.07,661.571 2108.16,661.546C2108,661.594 2107.8,661.811 2107.67,661.909C2106.48,662.774 2105.23,663.554 2103.93,664.249C2103.31,664.585 2102.67,664.9 2102.03,665.196C2101.89,665.26 2101.75,665.32 2101.61,665.384C2100.84,665.739 2101.88,665.253 2101.96,665.239C2101.59,665.299 2101.18,665.552 2100.83,665.683C2099.45,666.198 2098.03,666.626 2096.6,666.971C2095.95,667.126 2095.31,667.265 2094.65,667.386C2094.3,667.452 2093.95,667.507 2093.6,667.567C2092.4,667.771 2094.59,667.468 2093.41,667.597C2090.45,667.921 2087.48,667.96 2084.52,667.646C2084.1,667.602 2083.07,667.296 2084.48,667.656C2084.14,667.57 2083.77,667.55 2083.42,667.492C2082.67,667.365 2081.92,667.216 2081.17,667.046C2079.79,666.728 2078.42,666.335 2077.08,665.864C2076.42,665.634 2075.77,665.293 2075.1,665.105C2075.18,665.13 2076.22,665.606 2075.46,665.25C2075.32,665.185 2075.18,665.125 2075.04,665.062C2074.68,664.893 2074.32,664.718 2073.96,664.537C2072.66,663.882 2071.4,663.147 2070.2,662.33C2069.91,662.134 2069.62,661.932 2069.34,661.726C2069.22,661.638 2069.1,661.547 2068.98,661.459C2068.57,661.162 2068.86,661.086 2069.28,661.692C2068.92,661.177 2068.15,660.759 2067.68,660.331C2066.6,659.348 2065.61,658.282 2064.68,657.165C2063.9,656.239 2065.12,657.808 2064.62,657.1C2064.41,656.811 2064.2,656.525 2064,656.231C2063.57,655.601 2063.16,654.954 2062.78,654.291C2062.43,653.684 2062.11,653.062 2061.81,652.429C2061.72,652.249 2061.22,651.138 2061.57,651.937C2061.92,652.718 2061.4,651.47 2061.34,651.29C2060.87,649.993 2060.49,648.661 2060.21,647.309C2060.14,646.972 2060.08,646.633 2060.02,646.293C2059.98,646.059 2059.81,644.921 2059.93,645.788C2060.07,646.702 2059.91,645.487 2059.89,645.277C2059.86,644.884 2059.83,644.49 2059.81,644.096C2059.73,642.662 2059.75,641.223 2059.86,639.791C2059.89,639.444 2059.92,639.098 2059.96,638.752C2059.97,638.604 2060,638.456 2060.01,638.307C2060.07,637.649 2059.83,639.4 2059.95,638.748C2060.08,638.011 2060.19,637.272 2060.35,636.539C2060.64,635.17 2061.01,633.816 2061.45,632.489C2061.68,631.824 2061.93,631.171 2062.18,630.515C2062.49,629.694 2061.73,631.478 2062.2,630.464C2062.37,630.1 2062.53,629.735 2062.7,629.374C2063.33,628.07 2064.04,626.802 2064.81,625.581C2065.19,624.994 2065.58,624.418 2065.98,623.854C2066.15,623.62 2066.38,623.389 2066.52,623.137C2065.86,624.329 2066.37,623.333 2066.66,622.988C2067.57,621.892 2068.55,620.852 2069.6,619.883C2070.1,619.417 2070.62,618.979 2071.15,618.537C2071.99,617.831 2070.47,619.012 2071.18,618.512C2071.49,618.287 2071.8,618.055 2072.13,617.836C2073.29,617.042 2074.51,616.333 2075.78,615.723C2076.07,615.583 2076.44,615.477 2076.71,615.298C2076.73,615.282 2075.68,615.689 2076.18,615.52C2076.32,615.474 2076.46,615.412 2076.59,615.36C2077.28,615.097 2077.97,614.863 2078.68,614.659C2079.34,614.467 2080.01,614.302 2080.68,614.164C2081.03,614.094 2081.37,614.04 2081.71,613.976C2082.09,613.905 2082.49,614.02 2081.27,614.026C2081.46,614.025 2081.69,613.978 2081.87,613.958C2084.46,613.678 2087,611.859 2086.87,608.958C2086.76,606.489 2084.66,603.658 2081.87,603.958Z" style="fill:rgb(29,13,13);fill-rule:nonzero;"/>
        </g>
    </g>
</svg>
