<?xml version="1.0" encoding="UTF-8" standalone="no"?>
<!DOCTYPE svg PUBLIC "-//W3C//DTD SVG 1.1//EN" "http://www.w3.org/Graphics/SVG/1.1/DTD/svg11.dtd">
<svg width="100%" height="100%" viewBox="0 0 1200 1200" version="1.1" xmlns="http://www.w3.org/2000/svg" xmlns:xlink="http://www.w3.org/1999/xlink" xml:space="preserve" xmlns:serif="http://www.serif.com/" style="fill-rule:evenodd;clip-rule:evenodd;stroke-linejoin:round;stroke-miterlimit:2;">
    <rect id="Artboard1" x="0" y="0" width="1200" height="1200" style="fill:none;"/>
    <g id="Artboard11" serif:id="Artboard1">
        <g transform="matrix(3.86605,0,0,3.86605,-4011.58,-194.134)">
            <path d="M1246.56,99.226C1228.2,96.7 1209.54,100.992 1193.82,110.8C1178.29,120.492 1165.91,135.191 1160.1,152.645C1156.78,162.634 1155.58,174.018 1158.74,184.209C1160.28,189.18 1162.81,193.891 1166.47,197.629C1169.82,201.062 1173.98,203.582 1178.47,205.218C1187.23,208.404 1197.8,206.954 1204.37,199.994C1210.75,193.234 1212.65,182.822 1209.81,174.056C1206.74,164.555 1198.42,157.805 1188.85,155.479C1179.18,153.131 1168.91,155.063 1160.63,160.555C1152.23,166.13 1146.18,174.382 1142.5,183.692C1138.3,194.307 1137.85,206.254 1139.27,217.466C1141.61,236.001 1148.68,261.74 1171.18,263.298C1179.43,263.868 1188.85,260.158 1192.55,252.348C1197.16,242.636 1192.29,230.997 1183.15,225.905C1172.83,220.159 1160.21,223.577 1151.54,230.677C1143.24,237.476 1138.06,247.978 1134.79,257.996C1131.32,268.648 1130.21,280.699 1133.83,291.471C1136.93,300.705 1143.59,309.118 1152.41,313.485C1156.82,315.674 1161.62,316.924 1166.56,316.858C1169.18,316.824 1171.69,314.583 1171.56,311.858C1171.44,309.179 1169.37,306.821 1166.56,306.858C1165.54,306.872 1164.54,306.797 1163.53,306.725C1162.82,306.674 1164.5,306.89 1163.8,306.765C1163.57,306.723 1163.34,306.69 1163.1,306.647C1162.58,306.551 1162.07,306.439 1161.55,306.31C1160.58,306.066 1159.63,305.764 1158.69,305.409C1157.51,304.961 1159.4,305.755 1158.25,305.231C1157.77,305.01 1157.29,304.776 1156.82,304.527C1155.93,304.056 1155.06,303.537 1154.22,302.977C1153.82,302.711 1153.44,302.423 1153.05,302.154C1152.48,301.764 1153.74,302.72 1153.2,302.281C1152.97,302.092 1152.73,301.906 1152.5,301.713C1150.93,300.394 1149.48,298.926 1148.18,297.341C1148.14,297.295 1147.4,296.353 1147.89,296.992C1148.31,297.542 1147.83,296.908 1147.73,296.771C1147.44,296.378 1147.17,295.98 1146.9,295.576C1146.29,294.667 1145.72,293.73 1145.21,292.768C1144.98,292.341 1144.76,291.909 1144.54,291.473C1144.47,291.316 1143.82,289.926 1144.12,290.582C1144.42,291.234 1143.83,289.833 1143.77,289.665C1143.56,289.088 1143.36,288.505 1143.18,287.917C1142.84,286.803 1142.56,285.675 1142.32,284.535C1142.2,283.968 1142.09,283.398 1142,282.826C1141.95,282.559 1141.82,281.581 1141.96,282.652C1141.91,282.293 1141.87,281.934 1141.83,281.574C1141.58,279.121 1141.55,276.649 1141.69,274.188C1141.73,273.606 1141.77,273.025 1141.83,272.445C1141.85,272.154 1141.88,271.864 1141.91,271.574C1141.93,271.421 1142.03,270.499 1141.96,271.15C1141.87,271.924 1142.05,270.499 1142.05,270.511C1142.1,270.221 1142.14,269.932 1142.19,269.643C1142.3,268.992 1142.43,268.343 1142.56,267.696C1143.07,265.243 1143.72,262.822 1144.51,260.444C1144.9,259.255 1145.32,258.076 1145.78,256.909C1145.99,256.361 1146.21,255.816 1146.43,255.273C1146.36,255.455 1146.06,256.135 1146.45,255.253C1146.59,254.923 1146.74,254.593 1146.89,254.265C1147.84,252.159 1148.88,250.093 1150.04,248.096C1150.63,247.098 1151.24,246.118 1151.88,245.16C1152.18,244.71 1152.49,244.266 1152.81,243.827C1152.97,243.608 1153.13,243.393 1153.29,243.174C1152.89,243.727 1153.08,243.445 1153.38,243.068C1154.82,241.285 1156.4,239.621 1158.15,238.137C1158.41,237.919 1158.67,237.707 1158.93,237.493C1158.79,237.607 1158.13,238.076 1158.88,237.535C1159.32,237.224 1159.75,236.915 1160.2,236.623C1161.21,235.965 1162.26,235.373 1163.35,234.853C1163.59,234.737 1163.84,234.63 1164.08,234.516C1163.92,234.591 1163.13,234.881 1164,234.556C1164.5,234.368 1165.01,234.181 1165.52,234.016C1166.66,233.645 1167.83,233.383 1169.01,233.154C1169.27,233.105 1169.94,232.902 1168.86,233.161C1169.1,233.103 1169.41,233.1 1169.65,233.08C1170.18,233.035 1170.71,233.009 1171.23,233.001C1171.76,232.993 1172.29,233.006 1172.81,233.037C1173.07,233.053 1173.34,233.078 1173.6,233.099C1174.9,233.204 1172.55,232.867 1173.83,233.137C1174.87,233.357 1175.87,233.622 1176.88,233.95C1177.22,234.057 1177.76,234.062 1176.7,233.847C1176.89,233.885 1177.18,234.061 1177.33,234.138C1177.85,234.392 1178.36,234.674 1178.85,234.981C1179.17,235.185 1179.63,235.669 1180,235.768C1179.87,235.732 1179.14,235.039 1179.8,235.637C1179.97,235.793 1180.15,235.94 1180.33,236.097C1180.67,236.411 1181,236.738 1181.32,237.078C1181.47,237.247 1181.63,237.42 1181.78,237.596C1181.9,237.727 1182.01,237.861 1182.12,237.996C1182.35,238.283 1182.27,238.174 1181.87,237.671C1182.48,238.05 1183.01,239.395 1183.33,240.02C1183.44,240.224 1183.53,240.432 1183.64,240.637C1184.04,241.442 1183.54,240.508 1183.54,240.389C1183.53,240.848 1183.95,241.548 1184.08,242.007C1184.2,242.444 1184.28,242.886 1184.37,243.331C1184.53,244.121 1184.3,243.003 1184.34,243.006C1184.35,243.007 1184.4,243.731 1184.39,243.679C1184.42,244.129 1184.42,244.58 1184.4,245.03C1184.4,244.978 1184.37,245.704 1184.35,245.705C1184.46,244.995 1184.48,244.833 1184.42,245.219C1184.39,245.388 1184.36,245.556 1184.33,245.723C1184.24,246.157 1184.13,246.586 1183.99,247.008C1183.93,247.194 1183.86,247.376 1183.8,247.562C1183.55,248.34 1183.91,247.242 1183.98,247.171C1183.47,247.722 1183.14,248.725 1182.71,249.37C1182.26,250.043 1183.48,248.486 1182.62,249.443C1182.37,249.719 1182.11,249.985 1181.84,250.24C1181.58,250.483 1181.22,250.701 1181,250.974C1181.57,250.257 1181.72,250.447 1181.34,250.701C1181.11,250.858 1180.88,251.023 1180.64,251.174C1180,251.585 1179.32,251.923 1178.64,252.261C1177.91,252.624 1178.96,252.108 1179.04,252.098C1178.89,252.116 1178.65,252.249 1178.5,252.306C1178.04,252.473 1177.58,252.622 1177.11,252.754C1176.35,252.968 1175.57,253.116 1174.8,253.26C1173.96,253.414 1175.16,253.193 1175.24,253.204C1175.08,253.182 1174.81,253.25 1174.64,253.265C1174.14,253.309 1173.64,253.336 1173.14,253.346C1172.34,253.362 1171.53,253.334 1170.73,253.262C1170.57,253.248 1170.3,253.183 1170.13,253.2C1171.09,253.107 1171.02,253.339 1170.56,253.253C1170.06,253.162 1169.57,253.077 1169.08,252.962C1168.3,252.779 1167.53,252.551 1166.77,252.277C1166.67,252.238 1166.35,252.07 1166.21,252.064C1166.89,252.093 1167.07,252.454 1166.58,252.217C1166.14,251.999 1165.69,251.788 1165.25,251.546C1164.47,251.11 1163.73,250.604 1163,250.082C1162.15,249.474 1163.13,250.187 1163.14,250.185C1163.11,250.199 1162.64,249.778 1162.57,249.713C1162.1,249.315 1161.65,248.9 1161.21,248.471C1160.51,247.785 1159.84,247.062 1159.22,246.309C1159.08,246.142 1158.87,245.931 1158.75,245.737C1159.32,246.703 1158.94,245.979 1158.75,245.721C1158.43,245.273 1158.11,244.817 1157.8,244.353C1156.64,242.578 1155.63,240.703 1154.75,238.771C1154.64,238.541 1154.54,238.31 1154.44,238.079C1154.04,237.181 1154.43,238.161 1154.5,238.225C1154.23,237.967 1154.07,237.158 1153.94,236.809C1153.53,235.738 1153.16,234.655 1152.81,233.563C1152.16,231.508 1151.6,229.422 1151.11,227.322C1150.54,224.841 1150.04,222.34 1149.63,219.827C1149.52,219.137 1149.41,218.446 1149.31,217.754C1149.29,217.616 1149.16,216.648 1149.24,217.264C1149.32,217.88 1149.2,216.91 1149.18,216.772C1149.02,215.462 1148.89,214.148 1148.79,212.832C1148.59,210.21 1148.51,207.577 1148.57,204.947C1148.6,203.638 1148.66,202.33 1148.76,201.024C1148.81,200.411 1148.87,199.799 1148.94,199.187C1148.97,198.882 1149.01,198.577 1149.04,198.271C1149.09,197.904 1149.08,197.966 1149.02,198.458C1149.05,198.23 1149.08,198.002 1149.12,197.774C1149.51,195.189 1150.08,192.63 1150.84,190.126C1151.13,189.143 1151.46,188.17 1151.81,187.208C1151.99,186.749 1152.17,186.296 1152.35,185.839C1152.63,185.12 1151.84,186.949 1152.35,185.847C1152.48,185.569 1152.6,185.287 1152.73,185.008C1153.61,183.113 1154.62,181.277 1155.75,179.517C1156.28,178.69 1156.83,177.88 1157.42,177.09C1157.59,176.852 1158.07,176.123 1157.41,177.077C1157.55,176.879 1157.72,176.687 1157.87,176.503C1158.22,176.075 1158.57,175.655 1158.93,175.241C1160.3,173.687 1161.77,172.232 1163.36,170.903C1163.54,170.748 1163.73,170.594 1163.92,170.442C1164.05,170.334 1164.68,169.862 1164.12,170.273C1163.56,170.685 1164.2,170.221 1164.34,170.12C1164.58,169.942 1164.83,169.767 1165.08,169.596C1165.92,169.012 1166.79,168.465 1167.67,167.957C1168.56,167.45 1169.47,166.981 1170.41,166.556C1170.59,166.473 1170.93,166.379 1171.07,166.263C1170.96,166.351 1170.02,166.669 1170.88,166.354C1171.39,166.167 1171.9,165.971 1172.42,165.799C1173.39,165.476 1174.37,165.198 1175.37,164.976C1175.83,164.872 1176.3,164.781 1176.77,164.7C1176.98,164.664 1177.28,164.659 1177.48,164.589C1176.97,164.768 1176.64,164.69 1177.39,164.614C1179.41,164.407 1181.45,164.407 1183.47,164.611C1183.85,164.649 1184.58,164.543 1183.38,164.583C1183.59,164.576 1183.9,164.66 1184.09,164.693C1184.56,164.771 1185.03,164.861 1185.49,164.962C1186.54,165.189 1187.57,165.473 1188.58,165.813C1189.03,165.964 1189.47,166.132 1189.91,166.299C1190.28,166.436 1190.61,166.364 1189.7,166.203C1189.88,166.236 1190.19,166.424 1190.34,166.495C1191.3,166.945 1192.23,167.452 1193.12,168.014C1193.52,168.263 1193.91,168.524 1194.29,168.795C1194.44,168.904 1194.7,169.155 1194.86,169.209C1194.73,169.166 1194,168.493 1194.67,169.08C1195.47,169.774 1196.25,170.474 1196.97,171.253C1197.12,171.418 1197.69,172.296 1197.89,172.323C1197.82,172.314 1197.2,171.362 1197.76,172.155C1197.88,172.332 1198.01,172.505 1198.13,172.684C1198.68,173.487 1199.17,174.331 1199.59,175.205C1199.62,175.277 1199.87,175.79 1199.86,175.792C1199.84,175.802 1199.41,174.601 1199.73,175.494C1199.88,175.9 1200.04,176.303 1200.17,176.715C1200.47,177.641 1200.71,178.589 1200.88,179.547C1200.9,179.647 1200.95,180.16 1200.99,180.188C1200.94,180.154 1200.86,178.897 1200.94,179.826C1200.98,180.258 1201.03,180.688 1201.05,181.121C1201.1,182.094 1201.09,183.07 1201.02,184.041C1201.01,184.256 1200.98,184.471 1200.97,184.686C1200.93,185.242 1200.7,184.94 1201.03,184.32C1200.85,184.648 1200.89,185.217 1200.81,185.591C1200.62,186.534 1200.37,187.465 1200.05,188.374C1199.98,188.575 1199.9,188.773 1199.83,188.974C1199.6,189.636 1199.71,188.764 1199.97,188.663C1199.78,188.738 1199.54,189.592 1199.43,189.81C1198.99,190.658 1198.47,191.447 1197.93,192.232C1197.51,192.85 1198.03,191.928 1198.14,191.971C1198.13,191.967 1197.7,192.49 1197.73,192.454C1197.45,192.772 1197.16,193.08 1196.86,193.377C1196.55,193.675 1196.23,193.949 1195.91,194.236C1195.21,194.875 1196.16,194.019 1196.17,194.054C1196.19,194.093 1195.41,194.59 1195.37,194.617C1194.64,195.101 1193.88,195.499 1193.09,195.887C1192.24,196.305 1193.37,195.727 1193.4,195.762C1193.39,195.759 1192.87,195.96 1192.79,195.987C1192.29,196.164 1191.78,196.319 1191.26,196.45C1190.85,196.555 1190.43,196.646 1190.01,196.722C1189.91,196.741 1189.5,196.758 1189.38,196.826C1189.95,196.495 1190.33,196.728 1189.76,196.764C1188.79,196.824 1187.83,196.879 1186.86,196.836C1186.43,196.817 1186,196.773 1185.56,196.74C1184.65,196.67 1185.87,196.736 1185.92,196.796C1185.88,196.749 1185.38,196.711 1185.27,196.692C1184.3,196.52 1183.34,196.286 1182.39,195.997C1181.97,195.867 1181.55,195.727 1181.13,195.575C1180.92,195.499 1180.71,195.416 1180.51,195.339C1179.69,195.036 1180.67,195.391 1180.78,195.458C1179.96,194.914 1178.94,194.589 1178.08,194.091C1177.31,193.639 1176.57,193.133 1175.83,192.624C1175.1,192.12 1175.95,192.754 1176.04,192.797C1175.81,192.686 1175.58,192.433 1175.38,192.267C1175,191.943 1174.62,191.609 1174.25,191.263C1173.6,190.649 1172.99,190.002 1172.41,189.322C1172.39,189.299 1171.99,188.894 1171.98,188.808C1172.02,189.317 1172.5,189.53 1172.05,188.893C1171.77,188.484 1171.48,188.077 1171.21,187.654C1170.64,186.742 1170.11,185.797 1169.64,184.828C1169.5,184.527 1169.36,184.218 1169.22,183.917C1168.89,183.258 1169.51,184.692 1169.25,184.004C1169.04,183.44 1168.82,182.883 1168.63,182.313C1168.27,181.236 1167.96,180.141 1167.71,179.034C1167.59,178.511 1167.48,177.986 1167.39,177.458C1167.34,177.194 1167.29,176.929 1167.25,176.664C1167.15,176.041 1167,176.009 1167.23,176.594C1166.86,175.659 1167,174.149 1166.96,173.156C1166.91,171.999 1166.91,170.84 1166.96,169.683C1167,168.519 1167.09,167.356 1167.21,166.198C1167.24,165.925 1167.28,165.652 1167.31,165.379C1167.39,164.624 1167.17,166.232 1167.3,165.483C1167.4,164.872 1167.49,164.26 1167.6,163.651C1168.38,159.361 1169.68,155.225 1171.27,151.176C1171.7,150.085 1170.94,151.927 1171.25,151.236C1171.34,151.022 1171.43,150.807 1171.53,150.592C1171.72,150.164 1171.91,149.738 1172.11,149.314C1172.55,148.361 1173.02,147.418 1173.51,146.487C1174.44,144.728 1175.44,143.009 1176.5,141.335C1177.58,139.659 1178.73,138.045 1179.92,136.45C1180.33,135.899 1179.35,137.166 1179.78,136.629C1179.93,136.447 1180.07,136.262 1180.22,136.079C1180.51,135.713 1180.8,135.351 1181.1,134.991C1181.78,134.18 1182.47,133.384 1183.17,132.602C1185.85,129.644 1188.75,126.896 1191.85,124.383C1192.21,124.087 1192.58,123.797 1192.95,123.504C1193.54,123.036 1191.98,124.232 1192.92,123.533C1193.11,123.393 1193.29,123.25 1193.48,123.11C1194.28,122.514 1195.09,121.933 1195.92,121.367C1197.56,120.235 1199.25,119.166 1200.98,118.16C1202.71,117.156 1204.47,116.216 1206.27,115.344C1207.17,114.908 1208.07,114.489 1208.99,114.088C1209.19,113.998 1209.45,113.92 1209.63,113.807C1209.52,113.875 1208.58,114.239 1209.41,113.902C1209.96,113.682 1210.5,113.461 1211.05,113.249C1214.76,111.814 1218.59,110.664 1222.48,109.828C1223.39,109.631 1224.31,109.453 1225.23,109.291C1225.69,109.211 1226.15,109.135 1226.62,109.063C1226.85,109.027 1227.08,108.995 1227.31,108.959C1228.52,108.772 1226.15,109.093 1227.37,108.95C1229.34,108.718 1231.32,108.54 1233.31,108.461C1235.18,108.387 1237.05,108.389 1238.92,108.47C1239.86,108.511 1240.79,108.571 1241.73,108.651C1242.26,108.696 1242.78,108.748 1243.31,108.806C1243.6,108.839 1245.42,109.077 1243.9,108.868C1245.3,109.06 1246.49,109.106 1247.76,108.364C1248.79,107.757 1249.78,106.568 1250.05,105.376C1250.59,103.024 1249.33,99.607 1246.56,99.226Z" style="fill:rgb(29,13,13);fill-rule:nonzero;"/>
        </g>
    </g>
</svg>
