<?xml version="1.0" encoding="UTF-8" standalone="no"?>
<!DOCTYPE svg PUBLIC "-//W3C//DTD SVG 1.1//EN" "http://www.w3.org/Graphics/SVG/1.1/DTD/svg11.dtd">
<svg width="100%" height="100%" viewBox="0 0 1200 1200" version="1.1" xmlns="http://www.w3.org/2000/svg" xmlns:xlink="http://www.w3.org/1999/xlink" xml:space="preserve" xmlns:serif="http://www.serif.com/" style="fill-rule:evenodd;clip-rule:evenodd;stroke-linejoin:round;stroke-miterlimit:2;">
    <rect id="Artboard1" x="0" y="0" width="1200" height="1200" style="fill:none;"/>
    <g id="Artboard11" serif:id="Artboard1">
        <g transform="matrix(4.17656,0,0,4.17656,-7845.2,-1181.02)">
            <path d="M1942.51,375.946C1933.19,386.394 1930.63,401.398 1934.52,414.695C1938.59,428.604 1949.45,438.866 1962.58,444.359C1976.02,449.98 1991.33,449.749 2005.02,445.109C2012.23,442.666 2019.09,439.177 2025.33,434.829C2031.75,430.36 2037.7,425.23 2042.36,418.911C2046.65,413.076 2049.38,405.824 2048.99,398.507C2048.6,391.064 2045.34,384.008 2039.05,379.783C2028.91,372.972 2014.93,377.743 2007.19,385.974C2002.6,390.86 2000.12,396.765 1999.55,403.418C1998.9,411.066 2001.15,418.741 2004.64,425.48C2011.38,438.532 2023.17,448.707 2035.28,456.655C2047.06,464.384 2060.12,470.06 2073.44,474.564C2086.81,479.088 2100.56,482.402 2114.34,485.418C2117.69,486.15 2121.03,486.863 2124.38,487.572C2126.93,488.113 2129.91,486.821 2130.53,484.08C2131.11,481.57 2129.78,478.509 2127.04,477.93C2113.97,475.162 2100.9,472.321 2088.06,468.64C2081.72,466.826 2075.45,464.81 2069.28,462.492C2067.91,461.975 2066.54,461.444 2065.18,460.896C2064.44,460.598 2063.7,460.293 2062.96,459.988C2061.72,459.473 2063.92,460.407 2062.69,459.871C2062.2,459.66 2061.71,459.451 2061.22,459.237C2058.2,457.908 2055.21,456.49 2052.27,454.971C2046.54,452.012 2041,448.669 2035.78,444.885C2035.25,444.498 2034.72,444.107 2034.19,443.712C2033.87,443.475 2033.56,443.235 2033.25,442.995C2034.22,443.737 2033.16,442.922 2033.01,442.804C2031.66,441.737 2030.33,440.64 2029.04,439.511C2026.49,437.291 2024.03,434.961 2021.75,432.463C2020.71,431.333 2019.72,430.17 2018.76,428.974C2018.66,428.852 2017.82,427.74 2018.51,428.666C2018.26,428.331 2018.01,427.997 2017.76,427.659C2017.19,426.871 2016.64,426.07 2016.1,425.256C2015.19,423.87 2014.34,422.444 2013.56,420.98C2013.17,420.255 2012.8,419.52 2012.46,418.776C2012.28,418.406 2012.12,418.032 2011.95,417.659C2012.46,418.798 2011.76,417.183 2011.68,416.972C2011.16,415.593 2010.7,414.186 2010.33,412.756C2010.14,411.982 2009.96,411.203 2009.82,410.418C2009.75,410.043 2009.63,409.621 2009.62,409.24C2009.65,410.598 2009.59,408.866 2009.56,408.596C2009.42,407.008 2009.41,405.409 2009.52,403.818C2009.55,403.417 2009.59,403.018 2009.63,402.618C2009.76,401.273 2009.4,403.672 2009.68,402.343C2009.84,401.587 2009.97,400.834 2010.18,400.089C2010.34,399.513 2010.54,398.955 2010.74,398.39C2011.08,397.412 2010.32,399.233 2010.63,398.619C2010.74,398.398 2010.84,398.164 2010.94,397.941C2011.51,396.77 2012.18,395.651 2012.94,394.594C2013.28,394.109 2013.71,394.053 2012.88,394.644C2013.09,394.494 2013.29,394.143 2013.45,393.945C2013.85,393.485 2014.26,393.04 2014.68,392.609C2015.11,392.178 2015.55,391.762 2016,391.361C2016.23,391.161 2016.46,390.964 2016.69,390.772C2017.76,389.888 2016.16,391.125 2016.87,390.626C2017.78,389.994 2018.69,389.38 2019.65,388.842C2020.17,388.553 2020.7,388.281 2021.24,388.028C2021.63,387.849 2022.43,387.715 2021.13,388.057C2021.5,387.959 2021.87,387.764 2022.23,387.636C2023.32,387.248 2024.44,386.94 2025.58,386.726C2025.85,386.673 2026.15,386.652 2026.42,386.584C2024.99,386.94 2025.79,386.669 2026.21,386.631C2026.86,386.574 2027.51,386.549 2028.17,386.561C2028.72,386.571 2029.28,386.676 2029.82,386.67C2028.41,386.686 2029.11,386.567 2029.58,386.653C2029.81,386.695 2030.03,386.742 2030.25,386.793C2030.74,386.906 2031.23,387.042 2031.71,387.202C2031.96,387.287 2032.22,387.428 2032.48,387.488C2031.1,387.168 2032.09,387.324 2032.55,387.559C2033.05,387.816 2033.53,388.103 2034,388.417C2034.41,388.689 2034.73,389.223 2033.92,388.313C2034.1,388.521 2034.38,388.692 2034.59,388.878C2035.1,389.329 2035.57,389.814 2036.02,390.327C2036.1,390.418 2036.18,390.509 2036.25,390.6C2036.6,391.025 2036.55,390.97 2036.13,390.435C2036.44,390.637 2036.73,391.309 2036.92,391.623C2037.21,392.106 2037.86,392.947 2037.91,393.516C2037.84,393.337 2037.76,393.157 2037.69,392.978C2037.78,393.199 2037.86,393.422 2037.94,393.646C2038.07,393.983 2038.18,394.324 2038.28,394.667C2038.46,395.242 2038.61,395.825 2038.73,396.413C2038.78,396.67 2038.99,397.227 2038.93,397.482C2038.84,396.752 2038.83,396.669 2038.89,397.234C2038.92,397.476 2038.94,397.718 2038.96,397.96C2039.07,399.431 2039.01,400.882 2038.89,402.349C2038.79,403.603 2039.12,401.241 2038.87,402.474C2038.8,402.833 2038.74,403.195 2038.66,403.553C2038.48,404.386 2038.26,405.209 2038,406.018C2037.88,406.391 2037.75,406.76 2037.61,407.127C2037.54,407.31 2036.99,408.542 2037.5,407.43C2037.16,408.165 2036.82,408.893 2036.43,409.605C2035.67,411.028 2034.79,412.394 2033.84,413.701C2033.74,413.844 2032.9,414.909 2033.64,413.982C2033.39,414.299 2033.13,414.617 2032.87,414.929C2032.35,415.555 2031.81,416.167 2031.25,416.766C2030.05,418.068 2028.77,419.307 2027.46,420.495C2026.23,421.602 2024.97,422.665 2023.68,423.693C2023.69,423.682 2022.6,424.534 2023.18,424.083C2023.77,423.631 2022.67,424.471 2022.68,424.46C2021.89,425.052 2021.09,425.631 2020.28,426.195C2017.39,428.21 2014.37,430.046 2011.24,431.667C2009.74,432.444 2008.21,433.156 2006.66,433.845C2005.38,434.418 2007.61,433.474 2006.3,433.995C2006.04,434.099 2005.78,434.205 2005.52,434.308C2004.61,434.668 2003.69,435.009 2002.76,435.33C1999.46,436.472 1996.06,437.362 1992.62,437.955C1992.2,438.026 1991.79,438.087 1991.38,438.156C1989.99,438.387 1992.44,438.048 1991.04,438.204C1990.21,438.297 1989.38,438.389 1988.54,438.455C1986.92,438.582 1985.29,438.643 1983.67,438.626C1982.15,438.61 1980.63,438.527 1979.13,438.38C1978.75,438.343 1978.37,438.296 1977.99,438.256C1976.7,438.119 1979.1,438.443 1977.82,438.232C1976.94,438.089 1976.07,437.949 1975.2,437.774C1972.22,437.176 1969.3,436.321 1966.47,435.215C1966.12,435.077 1965.76,434.943 1965.42,434.789C1966.6,435.317 1965.43,434.782 1965.22,434.69C1964.53,434.378 1963.85,434.051 1963.18,433.708C1961.73,432.967 1960.31,432.154 1958.94,431.269C1958.31,430.862 1957.69,430.439 1957.08,430.001C1956.78,429.788 1956.44,429.582 1956.17,429.334C1957.09,430.187 1956.19,429.341 1956,429.193C1954.84,428.25 1953.72,427.248 1952.66,426.189C1951.6,425.126 1950.62,423.998 1949.66,422.843C1948.84,421.864 1950.26,423.703 1949.52,422.664C1949.3,422.358 1949.08,422.056 1948.86,421.747C1948.37,421.048 1947.91,420.333 1947.47,419.601C1946.72,418.358 1946.09,417.068 1945.47,415.761C1944.93,414.64 1945.85,416.783 1945.4,415.625C1945.27,415.287 1945.14,414.952 1945.01,414.613C1944.76,413.934 1944.53,413.248 1944.32,412.556C1943.89,411.172 1943.54,409.764 1943.27,408.341C1943.2,407.985 1943.14,407.629 1943.08,407.271C1943.03,406.935 1942.68,405.895 1943.06,407.167C1942.83,406.406 1942.87,405.438 1942.82,404.647C1942.74,403.207 1942.73,401.762 1942.8,400.321C1942.84,399.603 1942.9,398.886 1942.98,398.171C1943.02,397.741 1943.38,396.92 1942.98,398.077C1943.08,397.774 1943.09,397.333 1943.15,397.016C1943.4,395.61 1943.73,394.218 1944.15,392.851C1944.35,392.17 1944.58,391.496 1944.83,390.829C1944.95,390.512 1945.05,390.131 1945.22,389.837C1944.53,391.045 1945.31,389.679 1945.44,389.407C1946.05,388.123 1946.74,386.879 1947.52,385.69C1947.9,385.104 1948.29,384.463 1948.76,383.94C1947.88,384.919 1948.71,384.021 1948.87,383.832C1949.1,383.556 1949.34,383.286 1949.58,383.017C1951.32,381.065 1951.65,377.844 1949.58,375.946C1947.68,374.2 1944.37,373.861 1942.51,375.946Z" style="fill:rgb(29,13,13);fill-rule:nonzero;"/>
        </g>
    </g>
</svg>
